<svg width="13" height="12" viewBox="0 0 13 12" fill="none" xmlns="http://www.w3.org/2000/svg">
<path d="M10.7352 9.26146L10.6957 9.12981L10.6167 8.91915L10.5641 8.7875L10.4193 8.52418L10.2218 8.27403L9.95845 8.03705L9.65564 7.76057L9.40549 7.52359L9.16851 7.26027L8.97102 6.99696L8.7867 6.72048L8.58922 6.35184L8.47072 6.10169L8.3259 5.82521L8.14158 5.5224L7.93093 5.24592L7.78611 5.10109L7.64128 4.96943L7.4438 4.82461L7.20681 4.71929L6.904 4.61396L6.60119 4.57446H6.28521L5.9824 4.61396L5.54793 4.77195L5.12663 5.0616L4.85015 5.33808L4.67899 5.60139L4.50784 5.9042L4.28402 6.365L4.07337 6.77314L3.83639 7.08912L3.54674 7.45776L2.69097 8.2477L2.61197 8.31353L2.41449 8.59001L2.2565 8.90599L2.16434 9.30096L2.11168 9.65643L2.09851 10.0514L2.13801 10.3147L2.2565 10.6834L2.42765 11.0257L2.61197 11.2627L2.84896 11.4996L3.16493 11.7103L3.53358 11.8814L3.81006 11.9473L4.23136 11.9604L4.6395 11.8683L4.88965 11.7498L4.99497 11.6708L5.23195 11.5391L5.45577 11.4075L5.65326 11.289L5.86391 11.1968L6.03506 11.1178L6.23255 11.0652L6.4432 11.052L6.69335 11.0915L6.87767 11.131L7.18048 11.2758L7.54912 11.4601L7.85193 11.6576L8.12841 11.8156L8.4049 11.9341L8.66821 11.9868L8.89203 11.9999L9.07635 11.9868L9.36599 11.9078L9.73463 11.7366L9.99795 11.5523L10.2744 11.2758L10.4719 11.0125L10.6431 10.657L10.7484 10.3147L10.7879 10.0251V9.72226L10.7747 9.55111L10.7352 9.26146Z" fill="#B5B0AD"/>
<path d="M9.6833 2.32088C9.8011 1.20727 9.26349 0.23754 8.48252 0.154927C7.70154 0.0723141 6.97294 0.908103 6.85514 2.02171C6.73734 3.13533 7.27495 4.10506 8.05592 4.18767C8.8369 4.27028 9.5655 3.43449 9.6833 2.32088Z" fill="#B5B0AD"/>
<path d="M4.82626 4.18223C5.60724 4.09962 6.14484 3.12989 6.02704 2.01627C5.90925 0.902664 5.18065 0.0668758 4.39967 0.149489C3.6187 0.232101 3.08109 1.20183 3.19889 2.31544C3.31669 3.42905 4.04529 4.26484 4.82626 4.18223Z" fill="#B5B0AD"/>
<path d="M12.2929 5.62151C12.5347 4.5356 12.1094 3.5169 11.3429 3.34618C10.5763 3.17546 9.75888 3.91736 9.51702 5.00327C9.27517 6.08918 9.70049 7.10788 10.467 7.2786C11.2335 7.44933 12.051 6.70742 12.2929 5.62151Z" fill="#B5B0AD"/>
<path d="M2.41757 7.27809C3.18409 7.10737 3.60942 6.08866 3.36756 5.00276C3.1257 3.91685 2.30825 3.17494 1.54172 3.34566C0.775199 3.51639 0.349873 4.53509 0.59173 5.621C0.833587 6.70691 1.65104 7.44881 2.41757 7.27809Z" fill="#B5B0AD"/>
</svg>
